# xmcd
#
# Track frame offsets: 
#        150
#        19066
#        29881
#        45672
#        63135
#        79063
#        96418
#        116746
#        135205
#        151781
#
# Disc length: 2324 seconds
#
# Revision: 10
# Processed by: cddbd v1.5.2PL0 Copyright (c) Steve Scherf et al.
# Submitted via: ExactAudioCopyFreeDBPlugin 1.0
#
DISCID=7909120a
DTITLE=Michael Kiwanuka - Home Again
DYEAR=2012
DGENRE=Soul/Blues Rock
TTITLE0=Tell Me a Tale
TTITLE1=I'm Getting Ready
TTITLE2=I'll Get Along
TTITLE3=Rest
TTITLE4=Home Again
TTITLE5=Bones
TTITLE6=Always Waiting
TTITLE7=I Won't Lie
TTITLE8=Any Day Will Do Fine
TTITLE9=Worry Walks Beside Me
EXTD=YEAR: 2012
EXTT0=
EXTT1=
EXTT2=
EXTT3=
EXTT4=
EXTT5=
EXTT6=
EXTT7=
EXTT8=
EXTT9=
PLAYORDER=
